# WaveFront *.obj file (generated by Autodesk ATF)

mtllib box.mtl

g Body1

v -80.406553 -69.307300 20.000000
v -80.406553 71.026865 20.000000
v 78.457651 71.026865 20.000000
v 78.457651 -69.307300 20.000000
v 83.230461 -73.888483 20.000000
v 83.230461 76.081344 20.000000
v -85.109164 76.081344 20.000000
v -85.109164 -73.888483 20.000000
v 78.457651 71.026865 5.000000
v 78.457651 -69.307300 5.000000
v -80.406553 -69.307300 5.000000
v -80.406553 71.026865 5.000000
v -85.109164 -73.888483 0.000000
v 83.230461 -73.888483 0.000000
v -85.109164 76.081344 0.000000
v 83.230461 76.081344 0.000000
vt 7.939700 -7.040373 0.000000
vt -7.946720 -7.040373 0.000000
vt -8.416981 -7.498491 0.000000
vt -7.946720 6.993044 0.000000
vt -8.416981 7.498491 0.000000
vt 7.939700 6.993044 0.000000
vt 8.416981 7.498491 0.000000
vt 8.416981 -7.498491 0.000000
vt 0.000000 0.500000 0.000000
vt 14.033416 0.500000 0.000000
vt 0.000000 2.000000 0.000000
vt 14.033416 2.000000 0.000000
vt -0.000000 0.500000 0.000000
vt 15.886420 0.500000 0.000000
vt -0.000000 2.000000 0.000000
vt 15.886420 2.000000 0.000000
vt 0.000000 0.500000 0.000000
vt 15.886420 0.500000 0.000000
vt 0.000000 2.000000 0.000000
vt 15.886420 2.000000 0.000000
vt 0.000000 0.500000 0.000000
vt 14.033416 0.500000 0.000000
vt 0.000000 2.000000 0.000000
vt 14.033416 2.000000 0.000000
vt 0.000000 0.000000 0.000000
vt 16.833962 0.000000 0.000000
vt 0.000000 2.000000 0.000000
vt 16.833962 2.000000 0.000000
vt 0.000000 0.000000 0.000000
vt 14.996983 0.000000 0.000000
vt -0.000000 2.000000 0.000000
vt 14.996983 2.000000 0.000000
vt 0.000000 0.000000 0.000000
vt 16.833962 0.000000 0.000000
vt 0.000000 2.000000 0.000000
vt 16.833962 2.000000 0.000000
vt 0.000000 0.000000 0.000000
vt 14.996983 0.000000 0.000000
vt 0.000000 2.000000 0.000000
vt 14.996983 2.000000 0.000000
vt -7.946720 -7.040373 0.000000
vt 7.939700 -7.040373 0.000000
vt -7.946720 6.993044 0.000000
vt 7.939700 6.993044 0.000000
vt -8.416981 -7.498491 0.000000
vt 8.416981 -7.498491 0.000000
vt -8.416981 7.498491 0.000000
vt 8.416981 7.498491 0.000000
vn 0.000000 0.000000 0.100000
vn 0.000000 0.000000 0.100000
vn 0.000000 0.000000 0.100000
vn 0.000000 0.000000 0.100000
vn 0.000000 0.000000 0.100000
vn 0.000000 0.000000 0.100000
vn 0.000000 0.000000 0.100000
vn 0.000000 0.000000 0.100000
vn -0.100000 0.000000 0.000000
vn -0.100000 0.000000 0.000000
vn -0.100000 0.000000 0.000000
vn -0.100000 0.000000 0.000000
vn 0.000000 0.100000 0.000000
vn 0.000000 0.100000 0.000000
vn 0.000000 0.100000 0.000000
vn 0.000000 0.100000 0.000000
vn 0.000000 -0.100000 0.000000
vn 0.000000 -0.100000 0.000000
vn 0.000000 -0.100000 0.000000
vn 0.000000 -0.100000 0.000000
vn 0.100000 0.000000 0.000000
vn 0.100000 0.000000 0.000000
vn 0.100000 0.000000 0.000000
vn 0.100000 0.000000 0.000000
vn 0.000000 -0.100000 0.000000
vn 0.000000 -0.100000 0.000000
vn 0.000000 -0.100000 0.000000
vn 0.000000 -0.100000 0.000000
vn -0.100000 0.000000 0.000000
vn -0.100000 0.000000 0.000000
vn -0.100000 0.000000 0.000000
vn -0.100000 0.000000 0.000000
vn 0.000000 0.100000 0.000000
vn 0.000000 0.100000 0.000000
vn 0.000000 0.100000 0.000000
vn 0.000000 0.100000 0.000000
vn 0.100000 0.000000 0.000000
vn 0.100000 0.000000 0.000000
vn 0.100000 0.000000 0.000000
vn 0.100000 0.000000 0.000000
vn 0.000000 0.000000 0.100000
vn 0.000000 0.000000 0.100000
vn 0.000000 0.000000 0.100000
vn 0.000000 0.000000 0.100000
vn 0.000000 0.000000 -0.100000
vn 0.000000 0.000000 -0.100000
vn 0.000000 0.000000 -0.100000
vn 0.000000 0.000000 -0.100000
usemtl Steel_-_Satin
f 4/1/1 1/2/2 8/3/3
f 8/3/3 1/2/2 2/4/4
f 8/3/3 2/4/4 7/5/5
f 7/5/5 2/4/4 3/6/6
f 7/5/5 3/6/6 6/7/7
f 6/7/7 3/6/6 5/8/8
f 5/8/8 3/6/6 4/1/1
f 5/8/8 4/1/1 8/3/3
f 9/9/9 10/10/10 3/11/11
f 3/11/11 10/10/10 4/12/12
f 10/13/13 11/14/14 4/15/15
f 4/15/15 11/14/14 1/16/16
f 12/17/17 9/18/18 2/19/19
f 2/19/19 9/18/18 3/20/20
f 11/21/21 12/22/22 1/23/23
f 1/23/23 12/22/22 2/24/24
f 13/25/25 14/26/26 8/27/27
f 8/27/27 14/26/26 5/28/28
f 15/29/29 13/30/30 7/31/31
f 7/31/31 13/30/30 8/32/32
f 16/33/33 15/34/34 6/35/35
f 6/35/35 15/34/34 7/36/36
f 14/37/37 16/38/38 5/39/39
f 5/39/39 16/38/38 6/40/40
f 11/41/41 10/42/42 12/43/43
f 12/43/43 10/42/42 9/44/44
f 14/45/45 13/46/46 16/47/47
f 16/47/47 13/46/46 15/48/48
# 16 vertices
# 48 texture params
# 48 normals
# 28 facets

# 1 groups
